<svg width="16" height="16" fill="none" xmlns="http://www.w3.org/2000/svg"><path d="M2.5 8a5.5 5.5 0 1111 0 5.5 5.5 0 01-11 0z" fill="#212431" stroke="#555B77"/><path fill-rule="evenodd" clip-rule="evenodd" d="M9.585 6.385a.397.397 0 00.295-.125.408.408 0 00.123-.292.397.397 0 00-.123-.297.41.41 0 00-.295-.12.387.387 0 00-.29.12.41.41 0 00-.118.297c0 .117.04.216.118.297.078.08.175.12.29.12z" fill="#FFCB6B"/><path fill-rule="evenodd" clip-rule="evenodd" d="M9.188 6.75h.795v3.063h-.795V6.75zM7.73 8.781H6.65l-.001.001-.296 1.031H5.62l1.04-3.625v-.396h.99l1.182 4.02h-.816l-.285-1.03zm-.153-.698L7.18 6.5l-.398 1.583h.795z" fill="#fff"/></svg>