<svg width="16" height="16" fill="none" xmlns="http://www.w3.org/2000/svg"><path d="M4 3h5l2 1 1 2v7H4V3z" fill="#A9B4CB"/><path fill-rule="evenodd" clip-rule="evenodd" d="M9 2a1 1 0 01.707.293l3 3A1 1 0 0113 6v6a2 2 0 01-2 2H5a2 2 0 01-2-2V4a2 2 0 012-2h4zm3 4v6a1 1 0 01-1 1H5a1 1 0 01-1-1V4a1 1 0 011-1h4l3 3z" fill="#A9B4CB"/><path d="M9 3v3h3" fill="#F5F7F9"/><path d="M10 8.5H6M10 10.5H6" stroke="#434F65" stroke-linecap="round" stroke-linejoin="round"/><path d="M7 6.5H6" stroke="#252D3A" stroke-linecap="round" stroke-linejoin="round"/></svg>