<svg width="16" height="16" fill="none" xmlns="http://www.w3.org/2000/svg"><path fill-rule="evenodd" clip-rule="evenodd" d="M8 3.375h5.6c.77 0 1.4.619 1.4 1.375v.518A1.99 1.99 0 0014 5h-.4v-.25H2.4v6.875H5V13H2.4c-.77 0-1.4-.619-1.4-1.375l.007-8.25C1.007 2.619 1.63 2 2.4 2h4.2L8 3.375z" fill="#AB47BC"/><mask id="a" maskUnits="userSpaceOnUse" x="6" y="6" width="10" height="8"><rect x="6" y="6" width="10" height="8" rx="1.6" fill="#00B6C2"/></mask><g mask="url(#a)"><path fill="#80CBC4" d="M6 6h10v8H6z"/><path d="M13.85 10L8 15l8.55-.357.45-3.214L13.85 10z" fill="#343944"/><path d="M8.917 10.167a1.25 1.25 0 100-2.5 1.25 1.25 0 000 2.5z" fill="#fff"/></g></svg>