<svg width="16" height="16" fill="none" xmlns="http://www.w3.org/2000/svg"><path opacity=".8" fill-rule="evenodd" clip-rule="evenodd" d="M2.4 2h4.2L8 3.375h5.6c.77 0 1.4.619 1.4 1.375V7l-2.227-2.227a1.8 1.8 0 00-2.546 0L5.773 9.227a1.8 1.8 0 000 2.546L7 13H2.4c-.77 0-1.4-.619-1.4-1.375l.007-8.25C1.007 2.619 1.63 2 2.4 2z" fill="#474C60"/><path d="M15.83 10.1L11.9 6.17a.58.58 0 00-.819 0l-.816.816L11.3 8.02a.688.688 0 01.872.877l.997.998a.688.688 0 01.713 1.139.69.69 0 01-1.126-.75l-.93-.93v2.448a.69.69 0 11-.567-.02V9.312a.69.69 0 01-.374-.904l-1.02-1.021L7.17 10.08a.58.58 0 000 .82l3.93 3.93a.58.58 0 00.82 0l3.91-3.912a.58.58 0 000-.82z" fill="#FC8289"/></svg>