<svg width="16" height="16" fill="none" xmlns="http://www.w3.org/2000/svg"><path opacity=".8" fill-rule="evenodd" clip-rule="evenodd" d="M2.4 2h4.2L8 3.375h5.6c.77 0 1.4.619 1.4 1.375v.518A1.99 1.99 0 0014 5H7a2 2 0 00-2 2v6H2.4c-.77 0-1.4-.619-1.4-1.375l.007-8.25C1.007 2.619 1.63 2 2.4 2z" fill="#4E5579"/><path fill-rule="evenodd" clip-rule="evenodd" d="M7.222 6.222a1 1 0 00-1 1v6.556a1 1 0 001 1h6.556a1 1 0 001-1V7.222a1 1 0 00-1-1H7.222zM9.791 8.65a.663.663 0 00-.882 0l-1.556 1.383a.618.618 0 000 .936L8.91 12.35a.664.664 0 00.882-.993l-.966-.858.966-.859a.663.663 0 000-.992zm2.3 0a.663.663 0 10-.882.992l.966.859-.966.858a.663.663 0 10.882.992l1.556-1.382a.618.618 0 000-.936L12.09 8.65z" fill="#3965BD"/></svg>