<svg width="16" height="16" fill="none" xmlns="http://www.w3.org/2000/svg"><path opacity=".8" fill-rule="evenodd" clip-rule="evenodd" d="M2.4 2h4.2L8 3.375h5.6c.77 0 1.4.619 1.4 1.375V5H8a2 2 0 00-2 2v6H2.4c-.77 0-1.4-.619-1.4-1.375l.007-8.25C1.007 2.619 1.63 2 2.4 2z" fill="#474C60"/><path fill-rule="evenodd" clip-rule="evenodd" d="M8.222 6.222a1 1 0 00-1 1v6.556a1 1 0 001 1h6.556a1 1 0 001-1V7.222a1 1 0 00-1-1H8.222zm4.916 2.722a.5.5 0 00-.832-.555l-2.444 3.667a.5.5 0 00.832.555l2.444-3.667z" fill="#69A7D3"/></svg>