<svg width="16" height="16" fill="none" xmlns="http://www.w3.org/2000/svg"><path d="M8 12.32a4.32 4.32 0 01-4.197-3.313c.35.463.936.858 1.682 1.136.746.278 1.62.426 2.515.426.896 0 1.772-.15 2.52-.43.746-.278 1.33-.675 1.678-1.14A4.321 4.321 0 018 12.32zM3.802 7A4.32 4.32 0 018 3.678a4.32 4.32 0 014.197 3.313c-.35-.463-.936-.858-1.682-1.136-.746-.278-1.62-.426-2.515-.426-.896 0-1.772.15-2.52.43-.746.278-1.33.675-1.678 1.14z" fill="#F78C6C"/><path d="M4.46 2.423a.905.905 0 110 1.81.905.905 0 010-1.81z" fill="#8E95B4"/><path d="M3.852 11.391a.665.665 0 110 1.33.665.665 0 010-1.33zM11.672 11.816a.849.849 0 110 1.697.849.849 0 010-1.697z" fill="#6B7394"/></svg>