<svg width="16" height="16" fill="none" xmlns="http://www.w3.org/2000/svg"><path fill-rule="evenodd" clip-rule="evenodd" d="M8 2a.599.599 0 00-.298.079l-4.96 2.82a.602.602 0 00-.298.52v5.66c0 .212.113.406.299.512l4.959 2.83a.6.6 0 00.596 0l4.96-2.83a.587.587 0 00.298-.511V5.42a.602.602 0 00-.299-.521l-4.959-2.82A.599.599 0 008 2z" fill="#A9EFA3"/><mask id="a" maskUnits="userSpaceOnUse" x="2" y="2" width="12" height="13"><path fill-rule="evenodd" clip-rule="evenodd" d="M8 2a.599.599 0 00-.298.079l-4.96 2.82a.602.602 0 00-.298.52v5.66c0 .212.113.406.299.512l4.959 2.83a.6.6 0 00.596 0l4.96-2.83a.587.587 0 00.298-.511V5.42a.602.602 0 00-.299-.521l-4.959-2.82A.599.599 0 008 2z" fill="#fff"/></mask><g mask="url(#a)"><path fill-rule="evenodd" clip-rule="evenodd" d="M7.492.938l6.481 11.226-5.57 3.216L1.922 4.154 7.492.938z" fill="#2ECC71"/></g></svg>