<svg width="16" height="16" fill="none" xmlns="http://www.w3.org/2000/svg"><g fill-rule="evenodd" clip-rule="evenodd"><path d="M7.993 11.944c.417.412.82.733 1.21.962.39.229.747.343 1.072.344.1 0 .2-.012.3-.035.1-.023.19-.063.272-.12.29-.168.487-.463.591-.884.104-.42.107-.94.007-1.558a8.437 8.437 0 00-.136-.674c.11-.038.216-.073.32-.105.103-.032.205-.067.306-.105.57-.225 1.005-.487 1.304-.786.299-.3.448-.623.448-.97 0-.345-.15-.668-.448-.968-.3-.3-.734-.561-1.304-.786-.1-.038-.202-.075-.306-.112a3.804 3.804 0 00-.32-.098 9.321 9.321 0 00.136-.66c.09-.637.086-1.168-.014-1.593-.1-.425-.294-.723-.584-.891a.944.944 0 00-.285-.12c-.1-.023-.2-.035-.3-.035-.317 0-.672.115-1.066.344-.395.23-.795.55-1.203.962a5.964 5.964 0 00-1.196-.962c-.39-.229-.747-.343-1.073-.344-.1 0-.199.012-.299.035a.794.794 0 00-.272.12c-.29.168-.487.463-.591.884-.104.42-.107.94-.007 1.558a8.365 8.365 0 00.136.674c-.11.038-.216.073-.32.105a5.61 5.61 0 00-.306.105c-.57.225-1.005.487-1.304.786-.299.3-.449.623-.449.97 0 .345.15.668.45.968.298.3.733.561 1.303.786.1.038.202.075.307.112.104.037.21.07.319.098a8.994 8.994 0 00-.136.66c-.09.617-.086 1.14.014 1.565.1.426.294.723.584.892a1.205 1.205 0 00.571.154c.327.01.684-.1 1.073-.33.39-.23.788-.545 1.196-.948zm-.625-1.559c.109.01.215.015.319.015h.625l.32-.015c-.11.14-.216.274-.32.4-.104.127-.21.25-.319.372l-.306-.372c-.104-.126-.21-.26-.32-.4zM5.983 9.192c.063.103.12.201.17.295.05.093.106.187.169.281a56.22 56.22 0 01-.503-.084 7.452 7.452 0 01-.475-.098 9.25 9.25 0 01.156-.47c.06-.164.12-.325.184-.485a8.602 8.602 0 00.299.563v-.002zm-.64-2.78a6.7 6.7 0 01.476-.098l.503-.085-.164.282-.176.294a7.953 7.953 0 00-.157.282 4.57 4.57 0 00-.142.294 6.213 6.213 0 01-.19-.498c-.055-.165-.105-.321-.15-.47v-.001zm.612 1.587c.072-.16.147-.316.224-.47.077-.154.161-.31.252-.47l.272-.45.285-.449a5.85 5.85 0 01.496-.035 17.792 17.792 0 011.032 0c.168.005.333.017.496.035.11.15.206.3.292.45.086.15.174.299.265.449.09.16.175.316.252.47.077.154.152.31.224.47l-.224.463-.252.464-.272.45-.285.449a5.85 5.85 0 01-.496.035 18.334 18.334 0 01-1.032 0 5.85 5.85 0 01-.496-.035c-.11-.15-.206-.3-.292-.45-.086-.15-.174-.3-.265-.449a5.362 5.362 0 01-.252-.464L5.955 8zm4.375-.632l-.312-.576a12.558 12.558 0 00-.156-.288 4.071 4.071 0 00-.17-.274 7.974 7.974 0 01.978.168c-.045.16-.097.321-.156.485-.06.163-.12.325-.184.484zm0 1.25c.063.16.125.32.184.484.059.164.111.32.156.47-.154.038-.313.07-.475.098l-.503.085.164-.282.163-.294c.054-.085.107-.174.156-.267l.157-.295h-.002zm.258 4.015a.417.417 0 01-.149.056c-.055.01-.113.015-.177.015-.271 0-.573-.106-.903-.316a5.61 5.61 0 01-.998-.836c.163-.178.324-.368.482-.569.16-.201.315-.414.47-.639.262-.028.518-.06.767-.098.25-.037.491-.088.727-.154.027.103.05.208.068.316l.054.316c.082.487.093.9.034 1.236-.059.336-.183.561-.374.674v-.001zm.57-6.094c.635.188 1.129.413 1.482.674.353.262.53.524.53.787 0 .224-.125.444-.375.66-.249.214-.6.41-1.053.589a4.402 4.402 0 01-.584.196 13.504 13.504 0 00-.543-1.446c.109-.253.21-.501.306-.744.095-.243.174-.482.237-.716zm-.883-3.257c.055 0 .11.005.164.014a.32.32 0 01.15.07c.19.104.317.321.38.654.064.332.055.747-.027 1.243a7.175 7.175 0 01-.06.309c-.023.103-.043.21-.061.322a8.51 8.51 0 00-.727-.14 18.85 18.85 0 00-.768-.098 9.576 9.576 0 00-.951-1.222c.335-.337.666-.613.992-.828.326-.216.63-.323.91-.323h-.002zM8.632 5.598c-.109 0-.215-.003-.319-.008a6.908 6.908 0 00-.625 0 6.96 6.96 0 01-.32.008c.11-.14.216-.274.32-.4l.306-.372c.109.121.215.248.319.379.104.131.21.262.32.394v-.001zm-3.22-2.232a.309.309 0 01.149-.07c.054-.01.113-.014.177-.015.271 0 .573.105.903.316.33.211.663.49.998.836-.163.178-.324.368-.482.569a9.194 9.194 0 00-.47.653c-.262.019-.518.05-.767.092-.25.042-.491.091-.727.147a3.466 3.466 0 01-.068-.316 24.73 24.73 0 00-.054-.316c-.082-.487-.093-.897-.034-1.229.059-.332.183-.554.374-.667zm-.57 6.078c-.635-.177-1.129-.4-1.482-.666-.353-.267-.53-.527-.53-.78 0-.224.125-.446.375-.666.249-.22.6-.419 1.053-.597a4.414 4.414 0 01.584-.197c.072.235.154.473.244.717.09.243.19.49.3.744-.11.243-.212.488-.307.736a8.163 8.163 0 00-.237.71zm.23 1.278l.055-.309.068-.322c.235.056.478.105.727.147.25.042.505.077.768.105.154.225.31.438.468.639.159.201.32.39.483.569a5.61 5.61 0 01-.998.835c-.33.211-.632.317-.904.317a.902.902 0 01-.17-.015.585.585 0 01-.156-.056c-.19-.113-.315-.338-.374-.674-.059-.337-.048-.749.034-1.236z" fill="#69A7D3"/><path d="M9.04 7.999c0 .29-.103.54-.307.75a.993.993 0 01-.74.317.977.977 0 01-.728-.316 1.043 1.043 0 01-.306-.751c0-.3.102-.555.306-.766a.978.978 0 01.727-.316c.29 0 .537.105.741.316.204.21.306.466.306.766z" fill="#3965BD"/></g></svg>