<svg width="16" height="16" fill="none" xmlns="http://www.w3.org/2000/svg"><g fill-rule="evenodd" clip-rule="evenodd"><path d="M9.243 7.926a.654.654 0 01.046-.38.654.654 0 01.598-.397h.035a.792.792 0 000-1.584h-.067a.654.654 0 01-.598-.396v-.032a.654.654 0 01.13-.72l.024-.024a.792.792 0 10-1.12-1.121l-.024.023a.654.654 0 01-.721.131.654.654 0 01-.397-.598v-.036a.792.792 0 00-1.584 0v.068a.654.654 0 01-.396.598h-.032a.654.654 0 01-.72-.131l-.024-.024a.792.792 0 10-1.121 1.121l.023.024a.654.654 0 01.131.72.654.654 0 01-.598.429h-.036a.792.792 0 000 1.584h.068a.654.654 0 01.598.396.654.654 0 01-.131.721l-.024.024a.792.792 0 101.121 1.121l.024-.024a.654.654 0 01.72-.13.654.654 0 01.429.598v.035a.792.792 0 001.584 0v-.067a.654.654 0 01.396-.598.654.654 0 01.721.13l.024.024a.792.792 0 101.121-1.12l-.024-.024a.654.654 0 01-.176-.34zm-.966-1.532a1.883 1.883 0 11-3.766 0 1.883 1.883 0 013.766 0z" fill="#CBCEDC"/><path d="M13.069 11.275a.36.36 0 01-.056-.204.36.36 0 01.224-.325l.018-.008a.437.437 0 10-.327-.81l-.034.014a.36.36 0 01-.388-.079l-.006-.016a.36.36 0 01-.082-.395l.007-.017a.436.436 0 00-.566-.576.437.437 0 00-.238.234l-.008.017a.36.36 0 01-.341.216.36.36 0 01-.326-.224l-.008-.018a.436.436 0 10-.81.327l.015.034a.36.36 0 01-.08.388l-.016.006a.36.36 0 01-.395.082l-.017-.007a.437.437 0 10-.341.805l.017.007a.36.36 0 01.215.341.36.36 0 01-.217.342l-.018.008a.436.436 0 10.327.81l.034-.014a.36.36 0 01.388.079.36.36 0 01.082.395l-.007.017a.436.436 0 00.708.483.438.438 0 00.096-.141l.007-.017a.36.36 0 01.342-.216.36.36 0 01.342.217l.007.019a.436.436 0 10.81-.328l-.014-.034a.36.36 0 01.08-.388.36.36 0 01.395-.082l.017.008a.436.436 0 10.341-.805l-.017-.007a.36.36 0 01-.16-.138zm-.781-.617a1.098 1.098 0 11-2.036.823 1.098 1.098 0 012.036-.823z" fill="#6B7394"/></g></svg>