<svg width="16" height="16" fill="none" xmlns="http://www.w3.org/2000/svg"><g fill-rule="evenodd" clip-rule="evenodd"><path d="M11.227 6.567h2.216L8 12.987l3.227-6.42zM4.773 6.567H2.557L8 12.989 4.773 6.567z" fill="#E2AC1D"/><path d="M4.773 6.567l6.453.002L8 12.989 4.773 6.567z" fill="#FFCB6B"/><path d="M11.05 3.334l.177 3.233L8.01 3l3.042.334z" fill="#F2C140"/><path d="M11.05 3.334l.177 3.233h2.216l-2.392-3.233zM4.95 3.334l-.177 3.233H2.557l2.392-3.233z" fill="#F3D791"/><path d="M4.95 3.334l-.177 3.232L8.01 3l-3.06.334z" fill="#F2C140"/><path d="M4.774 6.567h6.453L8.009 3 4.773 6.567z" fill="#FCF5E3"/></g></svg>